<svg xmlns="http://www.w3.org/2000/svg" version="1.1" xmlns:xlink="http://www.w3.org/1999/xlink" xmlns:svgjs="http://svgjs.dev/svgjs" viewBox="0 0 1422 800"><defs><filter id="uuunion-blur" x="-100%" y="-100%" width="400%" height="400%" color-interpolation-filters="sRGB">
        <feGaussianBlur in="SourceGraphic" stdDeviation="7.5 11.5" result="blur"></feGaussianBlur>
        <feDropShadow stdDeviation="1.2307692307692308" in="blur" dx="1" dy="1" flood-color="hsl(246, 15%, 10%)" flood-opacity="0.25" x="0%" y="0%" width="100%" height="100%"></feDropShadow>
      </filter><filter id="uuunion-blur2" x="-100%" y="-100%" width="400%" height="400%" color-interpolation-filters="sRGB">
        <feGaussianBlur in="SourceGraphic" stdDeviation="7.5 11.5" result="blur"></feGaussianBlur>
        <feDropShadow stdDeviation="1.2307692307692308" in="blur" dx="-1" dy="-1" flood-color="hsl(246, 15%, 10%)" flood-opacity="0.25" x="0%" y="0%" width="100%" height="100%"></feDropShadow>
      </filter><linearGradient gradientTransform="rotate(0, 0.5, 0.5)" x1="50%" y1="0%" x2="50%" y2="100%" id="uuunion-grad"><stop stop-color="hsl(240, 32%, 18%)" offset="10%"></stop><stop stop-color="hsl(246, 15%, 10%)" offset="90%"></stop></linearGradient><linearGradient gradientTransform="rotate(137, 0.5, 0.5)" x1="50%" y1="0%" x2="50%" y2="100%" id="uuunion-grad2"><stop stop-color="hsl(240, 32%, 18%)" offset="25%"></stop><stop stop-color="hsl(246, 15%, 10%)" offset="100%"></stop></linearGradient><linearGradient gradientTransform="rotate(333, 0.5, 0.5)" x1="50%" y1="0%" x2="50%" y2="100%" id="uuunion-grad3"><stop stop-color="hsl(240, 32%, 18%)" offset="0%"></stop><stop stop-color="hsl(246, 15%, 10%)" offset="75%"></stop></linearGradient></defs><path d="M-137.85 -89.61Q-124.68 -88.63 -111.5 -87.01 -98.32 -84.87 -85.15 -82.38 -71.97 -79.71 -58.8 -77.06 -45.62 -74.62 -32.44 -72.59 -19.27 -71.09 -6.09 -70.26 7.08 -70.14 20.25 -70.74 33.43 -72.02 46.61 -73.9 59.78 -76.22 72.96 -78.81 86.13 -81.5 99.31 -84.07 112.49 -86.35 125.66 -88.15 138.84 -89.36 152.02 -89.88 165.19 -89.67 178.37 -88.75 191.55 -87.18 204.72 -85.09 217.9 -82.62 231.08 -79.96 244.25 -77.3 257.43 -74.84 270.6 -72.76 283.78 -71.21 296.96 -70.31 310.13 -70.12 323.31 -70.65 336.49 -71.88 349.66 -73.7 362.84 -75.98 376.02 -78.56 389.19 -81.25 402.37 -83.84 415.54 -86.15 428.72 -88.01 441.9 -89.27 455.07 -89.86 468.25 -89.72 481.43 -88.86 494.6 -87.36 507.78 -85.31 520.96 -82.87 534.13 -80.21 547.31 -77.55 560.49 -75.06 573.66 -72.93 586.84 -71.33 600.01 -70.36 613.19 -70.1 626.37 -70.57 639.54 -71.73 652.72 -73.5 665.9 -75.75 679.07 -78.31 692.25 -80.99 705.43 -83.6 718.6 -85.95 731.78 -87.85 744.96 -89.18 758.13 -89.84 771.31 -89.76 784.49 -88.97 797.66 -87.52 810.84 -85.52 824.01 -83.11 837.19 -80.47 850.37 -77.79 863.54 -75.28 876.72 -73.12 889.9 -71.46 903.07 -70.42 916.25 -70.1 929.43 -70.5 942.6 -71.6 955.78 -73.31 968.96 -75.52 982.13 -78.06 995.31 -80.74 1008.48 -83.37 1021.66 -85.74 1034.84 -87.7 1048.01 -89.09 1061.19 -89.8 1074.37 -89.8 1087.54 -89.08 1100.72 -87.69 1113.9 -85.73 1127.07 -83.35 1140.25 -80.72 1153.43 -78.04 1166.6 -75.51 1179.78 -73.3 1192.96 -71.59 1206.13 -70.49 1219.31 -70.1 1232.49 -70.43 1245.66 -71.46 1258.84 -73.13 1272.01 -75.3 1285.19 -77.81 1298.37 -80.49 1311.54 -83.13 1324.72 -85.53 1337.9 -87.54 1351.07 -88.98 1364.25 -89.77 1377.43 -89.83 1390.6 -89.18 1403.78 -87.84 1416.96 -85.93 1430.13 -83.59 1443.31 -80.98 1456.49 -78.29 1469.66 -75.73 1482.84 -73.49 1496.02 -71.72 1509.19 -70.57 1522.37 -70.1 1535.54 -70.37 1548.72 -71.34 1547.53 -56.32 1548.55 -41.31 1551.63 -26.29 1556.38 -11.27 1562.17 3.73 1568.22 18.75 1573.74 33.77 1577.99 48.78 1580.42 63.8 1580.7 78.82 1578.8 93.83 1574.96 108.85 1569.7 123.87 1563.71 138.88 1557.78 153.9 1552.7 168.91 1549.15 183.93 1547.58 198.95 1548.21 213.96 1550.96 228.98 1555.46 244 1561.12 259.01 1567.18 274.03 1572.85 289.05 1577.37 304.06 1580.15 319.08 1580.82 334.09 1579.28 349.11 1575.75 364.13 1570.69 379.14 1564.77 394.16 1558.77 409.18 1553.5 424.19 1549.63 439.21 1547.7 454.23 1547.95 469.24 1550.35 484.26 1554.58 499.27 1560.08 514.29 1566.13 529.31 1571.93 544.32 1576.7 559.34 1579.81 574.36 1580.86 589.37 1579.7 604.39 1576.49 619.41 1571.65 634.42 1565.83 649.44 1559.79 664.46 1554.33 679.47 1550.18 694.49 1547.88 709.5 1547.74 724.52 1549.78 739.54 1553.73 754.55 1559.06 769.57 1565.08 784.59 1570.97 799.6 1575.97 814.62 1579.41 829.64 1580.84 844.65 1580.06 859.67 1577.18 874.68 1572.59 889.7 1559.17 890.79 1545.76 891.09 1532.34 890.57 1518.93 889.27 1505.51 887.29 1492.1 884.77 1478.68 881.9 1465.27 878.9 1451.85 875.97 1438.44 873.34 1425.02 871.19 1411.61 869.7 1398.19 868.96 1384.77 869.04 1371.36 869.92 1357.94 871.54 1344.53 873.78 1331.11 876.49 1317.7 879.44 1304.28 882.44 1290.87 885.26 1277.45 887.69 1264.04 889.56 1250.62 890.72 1237.21 891.09 1223.79 890.65 1210.38 889.42 1196.96 887.5 1183.55 885.03 1170.13 882.18 1156.72 879.18 1143.3 876.23 1129.89 873.57 1116.47 871.37 1103.06 869.81 1089.64 869 1076.23 869 1062.81 869.8 1049.4 871.36 1035.98 873.55 1022.57 876.22 1009.15 879.16 995.74 882.16 982.32 885.01 968.91 887.49 955.49 889.41 942.08 890.64 928.66 891.09 915.25 890.73 901.83 889.57 888.42 887.71 875 885.28 861.59 882.46 848.17 879.46 834.75 876.5 821.34 873.8 807.92 871.55 794.51 869.93 781.09 869.04 767.68 868.96 754.26 869.69 740.85 871.18 727.43 873.32 714.02 875.95 700.6 878.88 687.19 881.88 673.77 884.75 660.36 887.27 646.94 889.26 633.53 890.56 620.11 891.09 606.7 890.8 593.28 889.71 579.87 887.91 566.45 885.53 553.04 882.74 539.62 879.75 526.21 876.78 512.79 874.04 499.38 871.74 485.96 870.05 472.55 869.09 459.13 868.93 445.72 869.59 432.3 871.01 418.89 873.09 405.47 875.68 392.06 878.59 378.64 881.6 365.23 884.49 351.81 887.06 338.4 889.1 324.98 890.47 311.57 891.07 298.15 890.86 284.74 889.85 271.32 888.11 257.91 885.77 244.49 883.02 231.08 880.03 217.66 877.05 204.25 874.28 190.83 871.94 177.42 870.18 164 869.15 150.59 868.91 137.17 869.49 123.76 870.85 110.34 872.87 96.93 875.42 83.51 878.31 70.1 881.32 56.68 884.23 43.27 886.83 29.85 888.93 16.44 890.37 3.02 891.05 -10.38 890.91 -23.8 889.97 -37.21 888.3 -50.63 886.02 -64.04 883.29 -77.46 880.32 -90.87 877.33 -104.29 874.53 -117.7 872.13 -131.12 870.32 -144.53 869.21 -145.82 854.23 -146.63 839.25 -146.84 824.27 -146.44 809.29 -145.48 794.3 -144.08 779.32 -142.43 764.34 -140.75 749.36 -139.26 734.38 -138.15 719.39 -137.58 704.41 -137.62 689.43 -138.26 674.45 -139.42 659.47 -140.95 644.49 -142.64 629.5 -144.27 614.52 -145.63 599.54 -146.53 584.56 -146.85 569.58 -146.56 554.59 -145.68 539.61 -144.35 524.63 -142.73 509.65 -141.03 494.67 -139.49 479.69 -138.31 464.7 -137.64 449.72 -137.57 434.74 -138.11 419.76 -139.19 404.78 -140.67 389.8 -142.35 374.81 -144 359.83 -145.42 344.85 -146.41 329.87 -146.84 314.89 -146.65 299.9 -145.87 284.92 -144.61 269.94 -143.02 254.96 -141.32 239.98 -139.74 225 -138.48 210.01 -137.71 195.03 -137.53 180.05 -137.97 165.07 -138.97 150.09 -140.39 135.1 -142.05 120.12 -143.73 105.14 -145.2 90.16 -146.27 75.18 -146.81 60.2 -146.73 45.21 -146.05 30.23 -144.86 15.25 -143.31 0.27 -141.62 -14.7 -140 -29.68 -138.67 -44.67 -137.81 -59.65 -137.52 -74.63 -137.85 -89.61" fill="url(#uuunion-grad)"></path><path d="M-137.86 -89.61Q-137.53 -74.63 -137.81 -59.65 -138.68 -44.67 -140.01 -29.69 -141.63 -14.7 -143.32 0.27 -144.87 15.25 -146.06 30.23 -146.74 45.21 -146.82 60.2 -146.28 75.18 -145.21 90.16 -143.74 105.14 -142.06 120.12 -140.4 135.1 -138.98 150.09 -137.98 165.07 -137.54 180.05 -137.72 195.03 -138.49 210.01 -139.75 225 -141.33 239.98 -143.03 254.96 -144.62 269.94 -145.88 284.92 -146.66 299.9 -146.85 314.89 -146.42 329.87 -145.43 344.85 -144.01 359.83 -142.36 374.81 -140.68 389.79 -131.83 390.41 -122.97 391.34 -114.12 392.56 -105.27 394.02 -96.42 395.67 -87.57 397.47 -78.72 399.35 -69.87 401.25 -61.02 403.11 -52.16 404.87 -43.31 406.47 -34.46 407.85 -25.61 408.98 -16.76 409.81 -0.03 410.45 2.92 410.49 13.77 406.99 24.63 402.99 35.52 398.51 46.42 393.63 57.35 388.43 68.29 383.04 79.26 377.55 90.25 372.09 101.27 366.78 112.31 361.74 123.37 357.05 134.45 352.8 145.55 349.05 156.68 345.82 167.82 343.13 178.99 340.94 190.16 339.22 201.36 337.89 212.56 336.85 223.78 336 235 335.23 246.23 334.41 257.46 333.43 268.7 332.18 279.93 330.56 291.16 328.49 302.39 325.93 313.6 322.84 324.81 319.22 336 315.1 347.18 310.53 358.34 305.58 369.48 300.35 380.6 294.94 391.7 289.47 402.78 284.07 413.83 278.84 424.86 273.89 435.86 269.32 446.84 265.2 457.79 261.58 468.72 258.49 479.62 255.92 490.5 253.84 501.35 252.21 512.18 250.94 522.99 249.93 533.79 249.09 544.56 248.3 555.32 247.43 566.07 246.36 576.81 245.01 587.55 243.27 598.28 241.07 609 238.38 619.74 235.16 630.47 231.42 641.22 227.19 651.97 222.53 662.75 217.53 673.54 212.26 684.35 206.86 695.19 201.42 706.06 196.07 716.95 190.92 727.89 186.08 738.85 181.63 749.86 177.64 760.91 174.15 772 171.19 783.13 168.73 794.31 166.76 805.53 165.21 816.8 163.99 828.12 163.02 839.49 162.17 850.91 161.35 862.37 160.41 873.87 159.27 885.42 157.81 897.01 155.95 908.64 153.62 920.31 150.79 932.02 147.45 943.75 143.59 955.51 139.26 967.3 134.53 979.11 129.47 990.93 124.18 1002.76 118.78 1014.6 113.38 1026.45 108.09 1038.29 103.03 1050.12 98.29 1061.94 93.97 1073.74 90.1 1085.52 86.75 1097.27 83.91 1108.99 81.57 1120.67 79.7 1132.31 78.22 1143.9 77.05 1155.43 76.1 1166.92 75.24 1178.34 74.38 1189.7 73.38 1200.99 72.15 1212.22 70.58 1223.37 68.59 1234.45 66.14 1245.46 63.18 1256.39 59.71 1267.24 55.74 1278.02 51.32 1288.72 46.51 1299.35 41.41 1309.9 36.1 1320.38 30.72 1330.79 25.35 1341.13 20.14 1351.42 15.17 1361.64 10.54 1371.8 6.34 1381.92 2.61 1391.99 -0.61 1402.03 -3.33 1412.02 -5.55 1422 -7.34 1415.83 -24.82 1410.77 -42.31 1407.73 -59.79 1407.25 -77.27 1409.41 -94.76 1413.83 -112.24 1419.71 -129.73 1426.01 -147.21 1413.66 -148.64 1401.3 -149.53 1388.95 -149.82 1376.59 -149.49 1364.24 -148.57 1351.89 -147.11 1339.53 -145.2 1327.18 -142.96 1314.82 -140.54 1302.47 -138.08 1290.12 -135.75 1277.76 -133.68 1265.41 -132 1253.05 -130.83 1240.7 -130.24 1228.35 -130.26 1215.99 -130.89 1203.64 -132.09 1191.28 -133.78 1178.93 -135.87 1166.58 -138.22 1154.22 -140.68 1141.87 -143.09 1129.51 -145.31 1117.16 -147.2 1104.81 -148.64 1092.45 -149.53 1080.1 -149.82 1067.74 -149.5 1055.39 -148.57 1043.04 -147.11 1030.68 -145.21 1018.33 -142.97 1005.97 -140.55 993.62 -138.1 981.27 -135.76 968.91 -133.69 956.56 -132.01 944.2 -130.84 931.85 -130.24 919.5 -130.25 907.14 -130.88 894.79 -132.08 882.43 -133.77 870.08 -135.86 857.73 -138.21 845.37 -140.67 833.02 -143.08 820.66 -145.3 808.31 -147.19 795.96 -148.63 783.6 -149.52 771.25 -149.82 758.89 -149.5 746.54 -148.58 734.19 -147.12 721.83 -145.22 709.48 -142.99 697.12 -140.56 684.77 -138.11 672.42 -135.77 660.06 -133.7 647.71 -132.02 635.35 -130.84 623 -130.24 610.65 -130.25 598.29 -130.88 585.94 -132.07 573.58 -133.77 561.23 -135.85 548.88 -138.19 536.52 -140.65 524.17 -143.07 511.81 -145.29 499.46 -147.18 487.11 -148.62 474.75 -149.52 462.4 -149.82 450.04 -149.5 437.69 -148.59 425.34 -147.13 412.98 -145.23 400.63 -143 388.27 -140.58 375.92 -138.12 363.57 -135.78 351.21 -133.71 338.86 -132.03 326.5 -130.85 314.15 -130.24 301.8 -130.25 289.44 -130.87 277.09 -132.06 264.73 -133.76 252.38 -135.84 240.03 -138.18 227.67 -140.64 215.32 -143.06 202.96 -145.28 190.61 -147.18 178.26 -148.62 165.9 -149.52 153.55 -149.82 141.19 -149.51 128.84 -148.59 116.49 -147.14 104.13 -145.24 91.78 -143.01 79.42 -140.59 67.07 -138.13 54.72 -135.79 42.36 -133.72 30.01 -132.03 17.65 -130.85 5.3 -130.25 -7.04 -130.25 -19.4 -130.87 -31.75 -132.06 -44.11 -133.75 -56.46 -135.83 -68.81 -138.17 -81.17 -140.63 -93.52 -143.05 -105.88 -145.27 -118.23 -147.17 -130.58 -148.61 -146.77 -142.17 -146 -119.79 -141.69 -104.72 -137.86 -89.61" fill="url(#uuunion-grad2)" filter="url(#uuunion-blur)"></path><path d="M1436.86 312.36Q1445.86 313.76 1454.86 315.36 1463.86 317.12 1472.86 318.96 1481.86 320.85 1490.86 322.7 1499.85 324.47 1508.85 326.09 1517.85 327.51 1526.85 328.68 1535.85 329.57 1544.85 330.15 1553.84 330.39 1562.84 330.29 1571.84 329.85 1580.84 329.09 1579.69 346.61 1575.75 364.13 1569.74 381.65 1562.74 399.17 1556 416.68 1550.73 434.2 1547.87 451.72 1547.95 469.24 1550.94 486.76 1556.31 504.28 1563.09 521.8 1570.07 539.32 1576 556.84 1579.81 574.36 1580.82 591.88 1578.84 609.4 1574.24 626.91 1567.83 644.43 1560.78 661.95 1554.33 679.47 1549.65 696.99 1547.59 714.51 1548.5 732.03 1552.23 749.55 1558.11 767.07 1565.08 784.59 1571.89 802.11 1577.32 819.62 1580.39 837.14 1580.56 854.66 1577.79 872.18 1572.59 889.7 1560.28 890.73 1547.98 891.09 1535.67 890.77 1523.37 889.78 1511.06 888.18 1498.76 886.08 1486.45 883.6 1474.15 880.89 1461.84 878.13 1449.54 875.49 1437.23 873.12 1424.93 871.18 1412.62 869.79 1400.32 869.03 1388.01 868.95 1375.71 869.55 1363.4 870.8 1351.1 872.62 1338.79 874.89 1326.49 877.49 1314.18 880.24 1301.87 882.97 1289.57 885.52 1277.26 887.73 1264.96 889.45 1252.65 890.59 1240.35 891.08 1228.04 890.88 1215.74 890 1203.43 888.51 1191.13 886.48 1178.82 884.06 1166.52 881.38 1154.21 878.62 1141.91 875.94 1129.6 873.51 1117.3 871.49 1104.99 869.99 1092.69 869.11 1080.38 868.91 1068.08 869.39 1055.77 870.53 1043.47 872.26 1031.16 874.46 1018.86 877.01 1006.55 879.74 994.25 882.49 981.94 885.09 969.64 887.36 957.33 889.19 945.03 890.44 932.72 891.04 920.42 890.96 908.11 890.21 895.81 888.81 883.5 886.88 871.2 884.51 858.89 881.87 846.59 879.11 834.28 876.4 821.98 873.92 809.67 871.81 797.37 870.21 785.06 869.22 772.76 868.9 760.45 869.26 748.15 870.28 735.84 871.91 723.54 874.04 711.23 876.54 698.93 879.25 686.62 882.01 674.31 884.64 662.01 886.99 649.7 888.9 637.4 890.26 625.09 890.99 612.79 891.03 600.48 890.39 588.18 889.1 575.87 887.26 563.57 884.96 551.26 882.35 538.96 879.6 526.65 876.87 514.35 874.34 502.04 872.15 489.74 870.46 477.43 869.35 465.13 868.9 452.82 869.14 440.52 870.06 428.21 871.58 415.91 873.63 403.6 876.08 391.3 878.76 378.99 881.52 366.69 884.19 354.38 886.6 342.08 888.6 329.77 890.06 317.47 890.91 305.16 891.07 292.86 890.55 280.55 889.38 268.25 887.62 255.94 885.39 243.64 882.83 231.33 880.09 219.03 877.35 206.72 874.77 194.42 872.51 182.11 870.72 169.81 869.5 157.5 868.93 145.2 869.05 132.89 869.85 120.59 871.27 108.28 873.24 95.98 875.62 83.67 878.27 71.37 881.04 59.06 883.73 46.76 886.2 34.45 888.28 22.14 889.85 3.41 885.94 -3.46 871.07 -3.76 861.06 -3.89 851.04 -3.85 841.03 -3.64 831.02 -2.78 816 -1.77 811 11.16 804.38 24.09 797.08 37 789.16 49.88 780.73 62.7 771.93 75.48 762.94 88.2 753.91 100.86 745.04 113.46 736.5 126 728.42 138.49 720.94 150.93 714.12 163.32 708.01 175.69 702.6 188.04 697.82 200.37 693.58 212.71 689.76 225.06 686.19 237.43 682.7 249.83 679.11 262.27 675.26 274.76 670.98 287.29 666.14 299.87 660.67 312.5 654.5 325.18 647.64 337.9 640.12 350.66 632.03 363.45 623.49 376.25 614.64 389.05 605.66 401.85 596.72 414.63 588 427.38 579.65 440.07 571.81 452.72 564.59 465.29 558.04 477.78 552.18 490.19 546.99 502.52 542.39 514.75 538.29 526.9 534.53 538.95 530.97 550.94 527.41 562.85 523.7 574.71 519.66 586.53 515.16 598.32 510.08 610.11 504.34 621.91 497.92 633.75 490.82 645.64 483.1 657.61 474.87 669.67 466.24 681.84 457.37 694.13 448.43 706.57 439.6 719.14 431.04 731.87 422.9 744.75 415.3 757.78 408.33 770.95 402.04 784.26 396.42 797.68 391.44 807.57 391.56 817.47 391.96 827.38 392.58 837.29 393.33 847.22 394.16 857.15 394.97 867.09 395.68 877.04 396.21 887 396.5 896.96 396.49 906.94 396.12 916.92 395.37 926.9 394.21 936.9 392.64 946.9 390.67 956.91 388.33 966.92 385.67 976.94 382.73 986.96 379.59 996.99 376.32 1007.03 373 1017.07 369.71 1027.11 366.52 1037.15 363.53 1047.2 360.79 1057.25 358.36 1067.31 356.28 1077.37 354.6 1087.42 353.33 1097.48 352.47 1107.54 351.99 1117.6 351.88 1127.66 352.09 1137.72 352.56 1147.78 353.22 1157.83 354 1167.89 354.82 1177.94 355.6 1187.99 356.25 1198.03 356.71 1208.08 356.9 1218.11 356.77 1228.14 356.28 1238.17 355.39 1248.19 354.1 1258.21 352.4 1268.21 350.31 1278.21 347.87 1288.21 345.12 1298.19 342.12 1308.17 338.94 1318.13 335.65 1328.09 332.34 1338.04 329.09 1347.97 325.96 1357.9 323.05 1367.81 320.41 1377.71 318.09 1387.61 316.15 1397.48 314.6 1407.35 313.46 1417.2 312.72 1427.04 312.37 1436.86 312.36" fill="url(#uuunion-grad3)" filter="url(#uuunion-blur2)"></path></svg>